# xmcd
#
# Track frame offsets:
#	187
#	16870
#	31287
#	47017
#	60157
#	73455
#	87525
#	100295
#	114485
#	127947
#
# Disc length: 2024 seconds
#
# Revision: 1
# Processed by: cddbd v1.5.2PL0 Copyright (c) Steve Scherf et al.
# Submitted via: audiograbber 1.83.01
#
DISCID=7f07e60a
DTITLE=Various Artist - Top 10 Records
DYEAR=1992
DGENRE=Oldies
TTITLE0=Sawyer Brown - The Walk
TTITLE1=Hank Williams Jr. - Angels Are Hard To Find
TTITLE2=Ronnie McDowell - Unchained Melody
TTITLE3=Hal Ketchum - Small Town Saturday Night
TTITLE4=Ray Stevens - Working For The Japanese
TTITLE5=Randy Travis and Merle Haggard - All Night Long
TTITLE6=Lyle Lovett - Cowboy Man
TTITLE7=Bill Medley - Don't Let Go
TTITLE8=Desert Rose Band and Emmylou Harris - Price I Pay
TTITLE9=Judds - Love Can Build A Bridge
EXTD=
EXTT0=
EXTT1=
EXTT2=
EXTT3=
EXTT4=
EXTT5=
EXTT6=
EXTT7=
EXTT8=
EXTT9=
PLAYORDER=
